<svg xmlns="http://www.w3.org/2000/svg" viewBox="0 0 20 25" fill="white">
  <path d="M5.4 17.4c-.8.8-2 .8-2.8 0-.8-.8-.8-2 0-2.8l4.8-4.8c-.8-.8-2-.8-2.8 0l-3.4 3.4c-1.6 1.6-1.6 4.1 0 5.7C2 19.6 3 20 4 20s2-.4 2.8-1.2l3.4-3.4c.8-.8.8-2 0-2.8l-4.8 4.8zM18.8 1.2c-1.6-1.6-4.1-1.6-5.7 0L9.8 4.6c-.8.8-.8 2 0 2.8l4.8-4.8c.8-.8 2-.8 2.8 0 .4.4.6.9.6 1.4 0 .5-.2 1-.6 1.4l-4.8 4.8c.4.4.9.6 1.4.6.5 0 1-.2 1.4-.6l3.4-3.4C19.6 6.1 20 5.1 20 4c0-1.1-.4-2.1-1.2-2.8z"/>
  <path d="M12.616 5.97l1.414 1.414-6.576 6.576-1.414-1.414z"/>
</svg>
