<svg viewbox="0 0 212 73" xmlns="http://www.w3.org/2000/svg">
    <path d="M76.011 37.25l-.192-.02c0-1.607-.033-3.214.009-4.819.052-2.009-.678-3.66-1.984-5.045-.909-.963-1.981-1.532-3.34-1.243-2.592.554-4.282 2.65-4.415 5.504-.079 1.684-.07 3.38-.271 5.049-.417 3.459-.842 6.91-.516 10.406.174 1.87.385 3.733 1.25 5.425.52 1.014 1.278 1.59 2.426 1.538a32.267 32.267 0 0 1 3.09-.02c.754.038 1.292-.293 1.553-.956.482-1.22 1.083-2.456 1.238-3.74.483-4.012.782-8.05 1.152-12.078m7.984-.593c-.127 5.037-.282 10.071-1.354 15.01-.579 2.664-1.4 5.223-3.103 7.373-1.331 1.681-3.047 2.625-5.078 2.737-2.827.156-5.672.318-8.493.153-3.225-.189-5.35-2.29-6.756-5.243-1.684-3.534-2.229-7.361-2.21-11.241.014-3.12.404-6.235.607-9.355.101-1.547.15-3.097.232-4.646.41-7.758 7.232-14.08 14.576-13.395 3.257.304 5.87 2.074 8.005 4.624 2.399 2.864 3.634 6.21 3.577 10.062-.019 1.307-.003 2.614-.003 3.921m62.017.596l-.193-.022c0-1.606-.033-3.213.009-4.817.053-2.009-.678-3.66-1.984-5.044-.91-.963-1.982-1.532-3.34-1.242-2.592.553-4.283 2.65-4.416 5.503-.078 1.684-.07 3.38-.27 5.048-.417 3.459-.842 6.91-.517 10.404.174 1.87.386 3.733 1.252 5.424.519 1.014 1.277 1.591 2.425 1.538a32.065 32.065 0 0 1 3.091-.019c.754.038 1.292-.294 1.553-.958.48-1.22 1.082-2.455 1.237-3.738.484-4.012.782-8.05 1.153-12.077m7.984-.647c-.13 5.036-.277 10.07-1.344 15.008-.582 2.693-1.406 5.279-3.13 7.447-1.334 1.68-3.057 2.61-5.087 2.72-2.828.152-5.673.316-8.494.146-3.19-.192-5.302-2.27-6.707-5.19-1.698-3.53-2.246-7.356-2.234-11.234.01-3.119.399-6.235.6-9.354.102-1.574.157-3.151.24-4.726.406-7.736 7.297-14.094 14.602-13.367 3.225.32 5.82 2.062 7.945 4.583 2.407 2.856 3.658 6.194 3.612 10.047-.016 1.307-.003 2.613-.003 3.92m-114.932-.68c.166-8.212 1.333-15.957 4.043-23.391a37.867 37.867 0 0 1 5.032-9.458c.37-.503.833-.954 1.32-1.335 1.102-.86 2.3-1.02 3.5-.236.713.465 1.424.962 2.04 1.554 1.238 1.19 1.288 2.137.37 3.62-1.086 1.755-2.23 3.477-3.2 5.302-2.604 4.907-3.95 10.243-4.434 15.802-.316 3.64-.428 7.3-.533 10.955-.03 1.081.136 2.221.456 3.25.958 3.084 1.522 6.245 1.854 9.452.315 3.034 1.247 5.843 2.44 8.597 1.077 2.49 2.06 5.025 3.062 7.55.746 1.878.138 2.952-1.165 3.885-.867.62-1.894 1.02-2.887 1.408-.693.27-1.37.081-1.819-.619-.67-1.044-1.447-2.036-1.968-3.16-1.429-3.085-2.88-6.173-4.06-9.367-.695-1.877-.894-3.957-1.31-5.947-.583-2.777-1.076-5.579-1.762-8.327-.806-3.23-1.209-6.481-.979-9.535M173 37.612c-.335 5.047-.696 10.054-1.93 14.94-.573 2.262-1.33 4.448-2.45 6.463-.852 1.533-1.436 3.163-1.928 4.867-.803 2.782-2.32 5.093-4.378 6.985-.038.034-.077.07-.116.101-1.876 1.527-3.049 1.378-4.536-.574-1.578-2.07-1.813-3.26-.415-5.465 1.96-3.095 3.138-6.564 4.61-9.902 1.756-3.981 2.676-8.145 2.85-12.509.123-3.062.374-6.166.054-9.189-.388-3.663-1.176-7.3-2.05-10.874-.83-3.39-1.914-6.718-3.055-10.005-.434-1.25-1.347-2.303-2.028-3.455-.508-.858-1.082-1.69-1.458-2.613-.208-.511-.222-1.24-.06-1.778.486-1.622 1.44-2.943 2.683-3.987 1.004-.843 1.55-.86 2.38.18 1.497 1.87 2.917 3.814 4.3 5.782 2.045 2.907 3.022 6.355 3.88 9.794a236.62 236.62 0 0 1 3.068 14.107c.432 2.326.4 4.752.579 7.132m-61.67 30.703c-4.722 0-9.446-.068-14.167.033-1.965.042-3.921.589-5.888.641-2.116.057-4.245-.121-6.355-.346-1.175-.124-1.714-1.147-1.86-2.323-.198-1.575.1-3.07.86-4.443.385-.697.949-1.055 1.723-1.001 3.937.272 7.835-.313 11.75-.57 3.712-.244 7.44-.32 11.159-.304 2.997.013 5.994.27 8.99.429 2.588.137 5.175.29 7.763.433.282.016.565.004.847.024 1.465.102 1.943.62 1.833 2.177-.103 1.454-.328 2.897-.476 4.347-.084.83-.536 1.257-1.258 1.258-1.794.004-3.59-.026-5.383-.1-3.18-.13-6.357-.305-9.536-.461l-.001.206M23.34 38.997c-2.616.038-5.34-1.34-7.861-3.282-1.138-.876-2.293-1.742-3.516-2.487-.561-.342-1.3-.505-1.967-.537-1.309-.062-2.23.633-2.716 1.876-.14.358-.23.735-.345 1.103-.212.683-.642 1.11-1.385 1.122a9.328 9.328 0 0 1-4.922-1.293c-.456-.265-.652-.664-.626-1.225.093-1.97.323-3.9 1.366-5.634 1.274-2.117 3.312-3.01 5.614-3.385 2.494-.408 5.015-.431 7.323.722 1.592.795 3.034 1.896 4.53 2.88.984.648 1.916 1.38 2.928 1.98.49.29 1.099.408 1.67.521.641.128.914-.353 1.11-.852.385-.978.733-1.97 1.13-2.943.511-1.246 1.48-1.781 2.805-1.731 1.507.057 2.91.416 3.987 1.544.277.291.555.76.534 1.13-.22 3.973-1.742 7.264-5.195 9.456-1.148.729-2.435 1.076-4.465 1.035m165.128-13.991c3.387-.108 6.162 1.326 8.739 3.338 1.13.882 2.322 1.688 3.518 2.48.349.231.8.335 1.218.427 1.045.229 1.291.078 1.674-.914.379-.98.733-1.97 1.15-2.934.438-1.017 1.25-1.531 2.36-1.554 1.623-.034 3.127.314 4.31 1.502.283.286.58.749.563 1.117-.173 3.797-1.603 6.982-4.766 9.23-1.67 1.185-3.555 1.455-5.579 1.23-2.763-.31-5.043-1.604-7.2-3.233-1.146-.865-2.294-1.74-3.518-2.483-.56-.34-1.306-.502-1.972-.514-1.306-.023-2.37.613-2.67 1.909-.506 2.191-.999 2.502-3.611 2.012-1.014-.19-1.985-.658-2.948-1.064-.534-.225-.765-.682-.732-1.313.101-1.942.324-3.846 1.345-5.56 1.297-2.178 3.387-3.047 5.744-3.439.784-.13 1.583-.16 2.375-.237" fill="#4A4A4A"/>
</svg>
