<svg xmlns="http://www.w3.org/2000/svg" viewBox="0 0 20 25">
    <path d="M19.7 1l-.2-.5-.5-.2S17.9 0 16.3 0c-2 0-4.8.5-7.2 2.9-.3.3-.7.7-1 1.1-1.5-.9-3.4-.9-4.9.2L0 6.4l4.5 4.4 4.6 4.6 4.4 4.5 2.3-3.2c1.1-1.5 1.1-3.4.2-4.9.4-.3.7-.7 1.1-1 4.2-4.1 2.6-9.6 2.6-9.8zM4.4 5.8c.7-.5 1.7-.6 2.4-.2-.7 1-1.4 1.9-1.9 2.9L3.1 6.7l1.3-.9zm6.1-1.5c2.7-2.7 6.1-2.4 7.3-2.2.2 1.3.5 4.7-2.2 7.3-1.6 1.6-3.7 3.1-5.6 4.1L6.4 9.9c1-1.9 2.5-4 4.1-5.6zm3.7 11.3l-.9 1.3-1.8-1.8c1-.5 2-1.2 2.9-1.9.4.7.3 1.7-.2 2.4z"/>
    <path d="M13 10c1.7 0 3-1.3 3-3s-1.3-3-3-3-3 1.3-3 3 1.3 3 3 3zm0-4c.6 0 1 .4 1 1s-.4 1-1 1-1-.4-1-1 .4-1 1-1zM1.9 13.9C1 14.8.4 17.5.3 18.6L0 20l1.4-.2c1.1-.2 3.8-.7 4.7-1.6 1.2-1.2 1.2-3.1 0-4.2-1.1-1.3-3.1-1.3-4.2-.1zm2.8 2.8c-.2.2-1.1.5-2.2.8.3-1.1.6-2 .8-2.2.2-.2.4-.3.7-.3.3 0 .5.1.7.3.4.4.4 1 0 1.4z"/>
</svg>
