<svg xmlns="http://www.w3.org/2000/svg" viewBox="0 0 20 25">
    <path d="M19 10.2V2c0-1.1-.9-2-2-2H2C.9 0 0 .9 0 2v14c0 1.1.9 2 2 2h9.1c1.1 1 2.1 1.7 2.4 1.8.2.1.4.2.5.2.2 0 .4-.1.5-.2.6-.4 5.5-3.7 5.5-7 0-1-.4-1.9-1-2.6zM17 4h-7V2h7v2zM6 4V2h2v2H6zM4 2v2H2V2h2zM2 6h15v3.1c-.2-.1-.4-.1-.6-.1-.9 0-1.7.3-2.4.9-.7-.6-1.5-.9-2.4-.9-2 0-3.6 1.7-3.6 3.8 0 1.1.5 2.2 1.3 3.2H2V6zm12 11.8c-1.4-1-4-3.3-4-5 0-1 .7-1.8 1.6-1.8.6 0 1.2.4 1.5 1 .2.3.5.6.9.6s.7-.2.9-.6c.3-.6.8-1 1.5-1 .9 0 1.6.8 1.6 1.8 0 1.6-2.3 3.7-4 5z"/>
</svg>
